<mxfile host="app.diagrams.net" modified="2023-01-06T07:15:44.881Z" agent="5.0 (Windows NT 10.0; Win64; x64) AppleWebKit/537.36 (KHTML, like Gecko) Chrome/108.0.0.0 Safari/537.36" etag="KPNzFRprF0MCpZq7h45z" version="20.8.1" type="github">
  <diagram id="C5RBs43oDa-KdzZeNtuy" name="Page-1">
    <mxGraphModel dx="1851" dy="1090" grid="1" gridSize="10" guides="1" tooltips="1" connect="1" arrows="1" fold="1" page="1" pageScale="1" pageWidth="827" pageHeight="1169" math="0" shadow="0">
      <root>
        <mxCell id="WIyWlLk6GJQsqaUBKTNV-0" />
        <mxCell id="WIyWlLk6GJQsqaUBKTNV-1" parent="WIyWlLk6GJQsqaUBKTNV-0" />
        <mxCell id="EcLjlNQ1DCuwvGYW88RV-2" value="" style="edgeStyle=orthogonalEdgeStyle;rounded=0;orthogonalLoop=1;jettySize=auto;html=1;" edge="1" parent="WIyWlLk6GJQsqaUBKTNV-1" source="EcLjlNQ1DCuwvGYW88RV-0" target="EcLjlNQ1DCuwvGYW88RV-1">
          <mxGeometry relative="1" as="geometry" />
        </mxCell>
        <mxCell id="EcLjlNQ1DCuwvGYW88RV-0" value="Start" style="ellipse;whiteSpace=wrap;html=1;aspect=fixed;" vertex="1" parent="WIyWlLk6GJQsqaUBKTNV-1">
          <mxGeometry x="340" y="10" width="80" height="80" as="geometry" />
        </mxCell>
        <mxCell id="EcLjlNQ1DCuwvGYW88RV-4" value="" style="edgeStyle=orthogonalEdgeStyle;rounded=0;orthogonalLoop=1;jettySize=auto;html=1;" edge="1" parent="WIyWlLk6GJQsqaUBKTNV-1" source="EcLjlNQ1DCuwvGYW88RV-1" target="EcLjlNQ1DCuwvGYW88RV-3">
          <mxGeometry relative="1" as="geometry" />
        </mxCell>
        <mxCell id="EcLjlNQ1DCuwvGYW88RV-7" value="" style="edgeStyle=orthogonalEdgeStyle;rounded=0;orthogonalLoop=1;jettySize=auto;html=1;" edge="1" parent="WIyWlLk6GJQsqaUBKTNV-1" source="EcLjlNQ1DCuwvGYW88RV-1" target="EcLjlNQ1DCuwvGYW88RV-6">
          <mxGeometry relative="1" as="geometry" />
        </mxCell>
        <mxCell id="EcLjlNQ1DCuwvGYW88RV-1" value="Forgot password" style="rhombus;whiteSpace=wrap;html=1;" vertex="1" parent="WIyWlLk6GJQsqaUBKTNV-1">
          <mxGeometry x="280" y="120" width="200" height="80" as="geometry" />
        </mxCell>
        <mxCell id="EcLjlNQ1DCuwvGYW88RV-10" value="" style="edgeStyle=orthogonalEdgeStyle;rounded=0;orthogonalLoop=1;jettySize=auto;html=1;" edge="1" parent="WIyWlLk6GJQsqaUBKTNV-1" source="EcLjlNQ1DCuwvGYW88RV-3" target="EcLjlNQ1DCuwvGYW88RV-9">
          <mxGeometry relative="1" as="geometry" />
        </mxCell>
        <mxCell id="EcLjlNQ1DCuwvGYW88RV-25" value="" style="edgeStyle=orthogonalEdgeStyle;rounded=0;orthogonalLoop=1;jettySize=auto;html=1;" edge="1" parent="WIyWlLk6GJQsqaUBKTNV-1" source="EcLjlNQ1DCuwvGYW88RV-3" target="EcLjlNQ1DCuwvGYW88RV-23">
          <mxGeometry relative="1" as="geometry" />
        </mxCell>
        <mxCell id="EcLjlNQ1DCuwvGYW88RV-27" value="" style="edgeStyle=orthogonalEdgeStyle;rounded=0;orthogonalLoop=1;jettySize=auto;html=1;" edge="1" parent="WIyWlLk6GJQsqaUBKTNV-1" source="EcLjlNQ1DCuwvGYW88RV-3" target="EcLjlNQ1DCuwvGYW88RV-26">
          <mxGeometry relative="1" as="geometry" />
        </mxCell>
        <mxCell id="EcLjlNQ1DCuwvGYW88RV-43" style="edgeStyle=orthogonalEdgeStyle;rounded=0;orthogonalLoop=1;jettySize=auto;html=1;exitX=0.25;exitY=0;exitDx=0;exitDy=0;entryX=0;entryY=0.5;entryDx=0;entryDy=0;" edge="1" parent="WIyWlLk6GJQsqaUBKTNV-1" source="EcLjlNQ1DCuwvGYW88RV-3" target="EcLjlNQ1DCuwvGYW88RV-39">
          <mxGeometry relative="1" as="geometry" />
        </mxCell>
        <mxCell id="EcLjlNQ1DCuwvGYW88RV-3" value="1.email&lt;br&gt;2.Secret word&lt;br&gt;3.With face&amp;nbsp;" style="whiteSpace=wrap;html=1;" vertex="1" parent="WIyWlLk6GJQsqaUBKTNV-1">
          <mxGeometry x="295" y="250" width="170" height="80" as="geometry" />
        </mxCell>
        <mxCell id="EcLjlNQ1DCuwvGYW88RV-5" value="Yes&amp;nbsp;" style="text;html=1;align=center;verticalAlign=middle;resizable=0;points=[];autosize=1;strokeColor=none;fillColor=none;" vertex="1" parent="WIyWlLk6GJQsqaUBKTNV-1">
          <mxGeometry x="370" y="210" width="50" height="30" as="geometry" />
        </mxCell>
        <mxCell id="EcLjlNQ1DCuwvGYW88RV-6" value="" style="shape=sumEllipse;perimeter=ellipsePerimeter;whiteSpace=wrap;html=1;backgroundOutline=1;" vertex="1" parent="WIyWlLk6GJQsqaUBKTNV-1">
          <mxGeometry x="560" y="135" width="50" height="50" as="geometry" />
        </mxCell>
        <mxCell id="EcLjlNQ1DCuwvGYW88RV-8" value="No" style="text;html=1;align=center;verticalAlign=middle;resizable=0;points=[];autosize=1;strokeColor=none;fillColor=none;" vertex="1" parent="WIyWlLk6GJQsqaUBKTNV-1">
          <mxGeometry x="480" y="135" width="40" height="30" as="geometry" />
        </mxCell>
        <mxCell id="EcLjlNQ1DCuwvGYW88RV-44" style="edgeStyle=orthogonalEdgeStyle;rounded=0;orthogonalLoop=1;jettySize=auto;html=1;exitX=1;exitY=0.75;exitDx=0;exitDy=0;entryX=0.992;entryY=0.383;entryDx=0;entryDy=0;entryPerimeter=0;" edge="1" parent="WIyWlLk6GJQsqaUBKTNV-1" source="EcLjlNQ1DCuwvGYW88RV-9" target="EcLjlNQ1DCuwvGYW88RV-39">
          <mxGeometry relative="1" as="geometry" />
        </mxCell>
        <mxCell id="EcLjlNQ1DCuwvGYW88RV-46" style="edgeStyle=orthogonalEdgeStyle;rounded=0;orthogonalLoop=1;jettySize=auto;html=1;exitX=0.5;exitY=1;exitDx=0;exitDy=0;entryX=1;entryY=0.5;entryDx=0;entryDy=0;" edge="1" parent="WIyWlLk6GJQsqaUBKTNV-1" source="EcLjlNQ1DCuwvGYW88RV-9" target="EcLjlNQ1DCuwvGYW88RV-29">
          <mxGeometry relative="1" as="geometry" />
        </mxCell>
        <mxCell id="EcLjlNQ1DCuwvGYW88RV-9" value="send code to email&amp;nbsp;" style="rounded=1;whiteSpace=wrap;html=1;" vertex="1" parent="WIyWlLk6GJQsqaUBKTNV-1">
          <mxGeometry x="570" y="260" width="120" height="60" as="geometry" />
        </mxCell>
        <mxCell id="EcLjlNQ1DCuwvGYW88RV-13" value="1.Email" style="text;html=1;align=center;verticalAlign=middle;resizable=0;points=[];autosize=1;strokeColor=none;fillColor=none;" vertex="1" parent="WIyWlLk6GJQsqaUBKTNV-1">
          <mxGeometry x="490" y="260" width="60" height="30" as="geometry" />
        </mxCell>
        <mxCell id="EcLjlNQ1DCuwvGYW88RV-18" value="2.Secret Word" style="text;html=1;align=center;verticalAlign=middle;resizable=0;points=[];autosize=1;strokeColor=none;fillColor=none;" vertex="1" parent="WIyWlLk6GJQsqaUBKTNV-1">
          <mxGeometry x="370" y="340" width="100" height="30" as="geometry" />
        </mxCell>
        <mxCell id="EcLjlNQ1DCuwvGYW88RV-30" value="" style="edgeStyle=orthogonalEdgeStyle;rounded=0;orthogonalLoop=1;jettySize=auto;html=1;" edge="1" parent="WIyWlLk6GJQsqaUBKTNV-1" source="EcLjlNQ1DCuwvGYW88RV-23" target="EcLjlNQ1DCuwvGYW88RV-29">
          <mxGeometry relative="1" as="geometry" />
        </mxCell>
        <mxCell id="EcLjlNQ1DCuwvGYW88RV-23" value="Check With Secret Word" style="rounded=1;whiteSpace=wrap;html=1;" vertex="1" parent="WIyWlLk6GJQsqaUBKTNV-1">
          <mxGeometry x="320" y="390" width="120" height="60" as="geometry" />
        </mxCell>
        <mxCell id="EcLjlNQ1DCuwvGYW88RV-47" style="edgeStyle=orthogonalEdgeStyle;rounded=0;orthogonalLoop=1;jettySize=auto;html=1;exitX=0.5;exitY=1;exitDx=0;exitDy=0;entryX=0;entryY=0.5;entryDx=0;entryDy=0;" edge="1" parent="WIyWlLk6GJQsqaUBKTNV-1" source="EcLjlNQ1DCuwvGYW88RV-26" target="EcLjlNQ1DCuwvGYW88RV-29">
          <mxGeometry relative="1" as="geometry" />
        </mxCell>
        <mxCell id="EcLjlNQ1DCuwvGYW88RV-48" style="edgeStyle=orthogonalEdgeStyle;rounded=0;orthogonalLoop=1;jettySize=auto;html=1;exitX=0;exitY=0.5;exitDx=0;exitDy=0;entryX=0.5;entryY=0;entryDx=0;entryDy=0;" edge="1" parent="WIyWlLk6GJQsqaUBKTNV-1" source="EcLjlNQ1DCuwvGYW88RV-26" target="EcLjlNQ1DCuwvGYW88RV-39">
          <mxGeometry relative="1" as="geometry" />
        </mxCell>
        <mxCell id="EcLjlNQ1DCuwvGYW88RV-26" value="Check With face" style="rounded=1;whiteSpace=wrap;html=1;" vertex="1" parent="WIyWlLk6GJQsqaUBKTNV-1">
          <mxGeometry x="60" y="260" width="120" height="60" as="geometry" />
        </mxCell>
        <mxCell id="EcLjlNQ1DCuwvGYW88RV-28" value="3.With face" style="text;html=1;align=center;verticalAlign=middle;resizable=0;points=[];autosize=1;strokeColor=none;fillColor=none;" vertex="1" parent="WIyWlLk6GJQsqaUBKTNV-1">
          <mxGeometry x="210" y="270" width="80" height="30" as="geometry" />
        </mxCell>
        <mxCell id="EcLjlNQ1DCuwvGYW88RV-37" value="" style="edgeStyle=orthogonalEdgeStyle;rounded=0;orthogonalLoop=1;jettySize=auto;html=1;" edge="1" parent="WIyWlLk6GJQsqaUBKTNV-1" source="EcLjlNQ1DCuwvGYW88RV-29" target="EcLjlNQ1DCuwvGYW88RV-36">
          <mxGeometry relative="1" as="geometry" />
        </mxCell>
        <mxCell id="EcLjlNQ1DCuwvGYW88RV-29" value="Set new password" style="rounded=0;whiteSpace=wrap;html=1;" vertex="1" parent="WIyWlLk6GJQsqaUBKTNV-1">
          <mxGeometry x="320" y="740" width="120" height="60" as="geometry" />
        </mxCell>
        <mxCell id="EcLjlNQ1DCuwvGYW88RV-31" value="Success" style="text;html=1;align=center;verticalAlign=middle;resizable=0;points=[];autosize=1;strokeColor=none;fillColor=none;" vertex="1" parent="WIyWlLk6GJQsqaUBKTNV-1">
          <mxGeometry x="370" y="480" width="70" height="30" as="geometry" />
        </mxCell>
        <mxCell id="EcLjlNQ1DCuwvGYW88RV-33" value="Success" style="text;html=1;align=center;verticalAlign=middle;resizable=0;points=[];autosize=1;strokeColor=none;fillColor=none;" vertex="1" parent="WIyWlLk6GJQsqaUBKTNV-1">
          <mxGeometry x="620" y="390" width="70" height="30" as="geometry" />
        </mxCell>
        <mxCell id="EcLjlNQ1DCuwvGYW88RV-35" value="Success" style="text;html=1;align=center;verticalAlign=middle;resizable=0;points=[];autosize=1;strokeColor=none;fillColor=none;" vertex="1" parent="WIyWlLk6GJQsqaUBKTNV-1">
          <mxGeometry x="110" y="390" width="70" height="30" as="geometry" />
        </mxCell>
        <mxCell id="EcLjlNQ1DCuwvGYW88RV-36" value="Finish" style="ellipse;whiteSpace=wrap;html=1;aspect=fixed;" vertex="1" parent="WIyWlLk6GJQsqaUBKTNV-1">
          <mxGeometry x="340" y="840" width="80" height="80" as="geometry" />
        </mxCell>
        <mxCell id="EcLjlNQ1DCuwvGYW88RV-49" style="edgeStyle=orthogonalEdgeStyle;rounded=0;orthogonalLoop=1;jettySize=auto;html=1;exitX=0.5;exitY=1;exitDx=0;exitDy=0;entryX=0;entryY=0.75;entryDx=0;entryDy=0;" edge="1" parent="WIyWlLk6GJQsqaUBKTNV-1" source="EcLjlNQ1DCuwvGYW88RV-39" target="EcLjlNQ1DCuwvGYW88RV-29">
          <mxGeometry relative="1" as="geometry" />
        </mxCell>
        <mxCell id="EcLjlNQ1DCuwvGYW88RV-39" value="Delete Account and open new Account" style="rounded=0;whiteSpace=wrap;html=1;" vertex="1" parent="WIyWlLk6GJQsqaUBKTNV-1">
          <mxGeometry x="-80" y="630" width="120" height="60" as="geometry" />
        </mxCell>
        <mxCell id="EcLjlNQ1DCuwvGYW88RV-41" value="failure" style="text;html=1;align=center;verticalAlign=middle;resizable=0;points=[];autosize=1;strokeColor=none;fillColor=none;" vertex="1" parent="WIyWlLk6GJQsqaUBKTNV-1">
          <mxGeometry x="-70" y="390" width="60" height="30" as="geometry" />
        </mxCell>
        <mxCell id="EcLjlNQ1DCuwvGYW88RV-42" value="failure" style="text;html=1;align=center;verticalAlign=middle;resizable=0;points=[];autosize=1;strokeColor=none;fillColor=none;" vertex="1" parent="WIyWlLk6GJQsqaUBKTNV-1">
          <mxGeometry x="160" y="210" width="60" height="30" as="geometry" />
        </mxCell>
        <mxCell id="EcLjlNQ1DCuwvGYW88RV-45" value="failure" style="text;html=1;align=center;verticalAlign=middle;resizable=0;points=[];autosize=1;strokeColor=none;fillColor=none;" vertex="1" parent="WIyWlLk6GJQsqaUBKTNV-1">
          <mxGeometry x="700" y="390" width="60" height="30" as="geometry" />
        </mxCell>
        <mxCell id="EcLjlNQ1DCuwvGYW88RV-51" value="Success" style="text;html=1;align=center;verticalAlign=middle;resizable=0;points=[];autosize=1;strokeColor=none;fillColor=none;" vertex="1" parent="WIyWlLk6GJQsqaUBKTNV-1">
          <mxGeometry x="-90" y="720" width="70" height="30" as="geometry" />
        </mxCell>
      </root>
    </mxGraphModel>
  </diagram>
</mxfile>
